<svg width="26" height="26" viewBox="0 0 26 26" fill="none" xmlns="http://www.w3.org/2000/svg">
<path fill-rule="evenodd" clip-rule="evenodd" d="M25.5674 12.4057L19.4535 9.27041C19.162 8.5824 18.4805 8.09973 17.6863 8.09973C16.8404 8.09973 16.1224 8.64717 15.8673 9.40708L9.81437 14.4007C9.5067 14.1907 9.13475 14.0679 8.73411 14.0679C8.23798 14.0679 7.78583 14.2562 7.44527 14.5653L0.121254 10.9847C0.998007 4.7759 6.33326 0 12.784 0C19.719 0 25.3647 5.51986 25.5674 12.4057ZM6.89118 16.5206L0 13.1516C0.191962 20.0471 5.84206 25.578 12.784 25.578C19.3672 25.578 24.7887 20.6039 25.4951 14.2089L25.3296 14.5315L19.0862 11.3297C18.7362 11.7031 18.2385 11.9364 17.6863 11.9364C17.2249 11.9364 16.8015 11.7735 16.4706 11.5021L10.6223 16.327C10.4615 17.2239 9.67731 17.9046 8.73411 17.9046C7.86009 17.9046 7.12259 17.3201 6.89118 16.5206Z" fill="#2F88FF"/>
</svg>
