<svg width="40" height="40" viewBox="0 0 40 40" fill="none" xmlns="http://www.w3.org/2000/svg">
<path d="M39.4015 24.8381C36.7304 35.5525 25.8784 42.0731 15.1628 39.4012C4.45162 36.7301 -2.06895 25.8775 0.603365 15.1639C3.27334 4.44838 14.1253 -2.07268 24.8376 0.598468C35.5525 3.26961 42.0727 14.1234 39.4012 24.8383L39.4014 24.8381H39.4015Z" fill="#F7931A"/>
<path fill-rule="evenodd" clip-rule="evenodd" d="M28.8212 17.1505C29.2192 14.4889 27.1929 13.0582 24.4221 12.1038L25.3209 8.49851L23.1263 7.95165L22.2512 11.462C21.6743 11.3181 21.0818 11.1826 20.4929 11.0481L21.3742 7.51457L19.1809 6.96771L18.2816 10.5719C17.8041 10.4632 17.3352 10.3557 16.8802 10.2425L16.8827 10.2312L13.8563 9.4754L13.2724 11.8195C13.2724 11.8195 14.9007 12.1927 14.8664 12.2157C15.7551 12.4375 15.9158 13.0258 15.8891 13.4921L14.8652 17.5994C14.9264 17.6149 15.0058 17.6374 15.0934 17.6726L15.0297 17.6567L15.0297 17.6567C14.9755 17.6432 14.9192 17.6291 14.8614 17.6152L13.4262 23.369C13.3176 23.639 13.0419 24.0442 12.4206 23.8903C12.4426 23.9222 10.8255 23.4923 10.8255 23.4923L9.73584 26.0045L12.5918 26.7164C12.9045 26.7948 13.2134 26.8754 13.5192 26.9551L13.5196 26.9552C13.7334 27.0109 13.9456 27.0662 14.1566 27.1202L13.2484 30.7668L15.4405 31.3137L16.3399 27.7057C16.9388 27.8683 17.5199 28.0183 18.0889 28.1596L17.1925 31.7506L19.3873 32.2974L20.2954 28.6576C24.0378 29.3659 26.8517 29.0803 28.0362 25.6953C28.9906 22.97 27.9887 21.3981 26.0198 20.373C27.4538 20.0423 28.534 19.0991 28.822 17.1508L28.8213 17.1503L28.8212 17.1505ZM23.8069 24.1819C23.1846 26.6822 19.2708 25.6485 17.4801 25.1756C17.319 25.133 17.1751 25.095 17.0524 25.0645L18.2575 20.2333C18.4072 20.2707 18.59 20.3117 18.7972 20.3582C20.6494 20.7739 24.4444 21.6255 23.807 24.1819H23.8069ZM19.1687 18.1159C20.6616 18.5144 23.9184 19.3835 24.4856 17.111H24.4858C25.065 14.7868 21.8999 14.086 20.3541 13.7438C20.1802 13.7053 20.0268 13.6713 19.9015 13.6401L18.8089 18.0217C18.912 18.0474 19.0331 18.0797 19.1687 18.1159Z" fill="white"/>
</svg>
