<svg width="40" height="40" viewBox="0 0 40 40" fill="none" xmlns="http://www.w3.org/2000/svg">
<circle cx="20" cy="20" r="20" fill="#13B5EC"/>
<path fill-rule="evenodd" clip-rule="evenodd" d="M21.6667 16.0017L26.1667 13.3635V18.6398L21.6667 16.0017ZM26.1667 27.3082L20.1667 30.8258L14.1667 27.3082V21.1524L20.1667 24.67L26.1667 21.1524V27.3082ZM14.1667 13.3635L18.6667 16.0017L14.1667 18.6398V13.3635ZM20.9167 17.2579L25.4167 19.8961L20.9167 22.5343V17.2579ZM19.4167 22.5343L14.9167 19.8961L19.4167 17.2579V22.5343ZM25.4167 12.1072L20.1667 15.1223L14.9167 12.1072L20.1667 8.96648L25.4167 12.1072ZM12.6667 11.6047V28.062L20.1667 32.3333L27.6667 28.062V11.6047L20.1667 7.33331L12.6667 11.6047Z" fill="white"/>
</svg>
