<svg width="40" height="40" viewBox="0 0 40 40" fill="none" xmlns="http://www.w3.org/2000/svg">
<circle cx="20" cy="20" r="20" fill="white"/>
<path fill-rule="evenodd" clip-rule="evenodd" d="M5.61597 18.47L11.764 3.85602L29.228 5.86802L32.804 16.654L31.016 31.574C28.446 34.332 26.806 35.71 26.098 35.71C25.39 35.71 20.026 34.732 10.004 32.776L5.61797 21.934L5.61597 18.47Z" fill="#F9F9F9"/>
<path fill-rule="evenodd" clip-rule="evenodd" d="M28.38 31.588H24.122V24.258C24.122 23.084 23.172 22.13 21.998 22.13H21.996H15.876C13.526 22.13 11.62 20.224 11.62 17.874V8.414H15.876V15.746C15.876 16.92 16.828 17.874 18.002 17.874H24.122C26.472 17.876 28.376 19.78 28.378 22.13L28.38 31.588ZM16.024 31.588H11.766V24.44C14.116 24.44 16.022 26.344 16.022 28.696L16.024 31.588ZM23.976 8.412H28.232V15.564C25.88 15.564 23.976 13.658 23.976 11.308V8.412ZM20 0C8.954 0 0 8.956 0 20C0 31.044 8.954 40 20 40C31.046 40 40 31.046 40 20C40 8.954 31.046 0 20 0Z" fill="#005FFA"/>
</svg>
