<svg width="40" height="40" viewBox="0 0 40 40" fill="none" xmlns="http://www.w3.org/2000/svg">
<circle cx="20" cy="20" r="20" fill="#EDF0F4"/>
<ellipse cx="28.3045" cy="12.0287" rx="1.6954" ry="1.6954" fill="#18A0B1"/>
<path d="M15.2702 23.0759C13.9569 20.8465 14.3176 18.0109 16.1473 16.1813C17.977 14.3516 20.8125 13.9909 23.042 15.3042L24.3983 13.9479L24.3305 13.8936C21.3223 11.9108 17.3325 12.3281 14.7997 14.8906C12.267 17.453 11.8962 21.4474 13.9139 24.4323L15.2702 23.0759Z" fill="#18A0B1"/>
<path d="M25.0629 17.3319C26.3762 19.5614 26.0155 22.3969 24.1858 24.2266C22.3561 26.0563 19.5206 26.417 17.2911 25.1036L15.9348 26.46C18.9314 28.4943 22.9506 28.1135 25.5116 25.5524C28.0727 22.9913 28.4536 18.9721 26.4192 15.9756L25.0629 17.3319Z" fill="#18A0B1"/>
<ellipse cx="12.0287" cy="28.3046" rx="1.6954" ry="1.6954" fill="#18A0B1"/>
</svg>
