<svg width="31" height="27" viewBox="0 0 31 27" fill="none" xmlns="http://www.w3.org/2000/svg">
<path fill-rule="evenodd" clip-rule="evenodd" d="M3.99147 18.8615H1.63583C1.47463 18.8615 1.33753 18.9775 1.31239 19.1351L0.359649 25.1187C0.340712 25.2368 0.433021 25.3432 0.553925 25.3432H1.67853C1.83973 25.3432 1.97683 25.2271 2.00197 25.0693L2.25893 23.4554C2.28372 23.2974 2.42115 23.1815 2.58202 23.1815H3.32774C4.87948 23.1815 5.77499 22.4376 6.00898 20.9637C6.11435 20.3188 6.01345 19.8121 5.70852 19.4572C5.37378 19.0677 4.77986 18.8615 3.99147 18.8615ZM4.26325 21.0469C4.13445 21.8842 3.4886 21.8842 2.86412 21.8842H2.50865L2.75803 20.3204C2.77284 20.226 2.8555 20.1563 2.95195 20.1563H3.11487C3.54026 20.1563 3.94158 20.1563 4.14896 20.3965C4.27249 20.5399 4.31043 20.7527 4.26325 21.0469ZM11.0331 21.02H9.90501C9.80889 21.02 9.72585 21.0897 9.71102 21.1842L9.66113 21.4967L9.58223 21.3835C9.33803 21.0323 8.79352 20.915 8.24997 20.915C7.00331 20.915 5.93869 21.8502 5.73131 23.1622C5.62356 23.8165 5.77674 24.4423 6.15149 24.8787C6.49531 25.2799 6.98721 25.4471 7.57237 25.4471C8.57674 25.4471 9.13384 24.8073 9.13384 24.8073L9.08347 25.1179C9.0645 25.2366 9.15679 25.343 9.27698 25.343H10.2931C10.4548 25.343 10.5911 25.227 10.6166 25.0691L11.2263 21.2446C11.2456 21.1269 11.1536 21.02 11.0331 21.02ZM9.46061 23.1949C9.35174 23.8332 8.84023 24.2618 8.18797 24.2618C7.8604 24.2618 7.59851 24.1577 7.4305 23.9605C7.26377 23.7647 7.20033 23.4859 7.25341 23.1755C7.35511 22.5425 7.87523 22.1 8.5176 22.1C8.83784 22.1 9.09829 22.2054 9.26981 22.4043C9.44164 22.6053 9.50986 22.8857 9.46061 23.1949ZM15.9073 21.0199H17.041C17.1997 21.0199 17.2924 21.1962 17.2021 21.3252L13.4319 26.7161C13.3708 26.8034 13.2702 26.8554 13.1628 26.8554H12.0306C11.8712 26.8554 11.7781 26.6776 11.8704 26.5483L13.0444 24.9068L11.7958 21.2771C11.7526 21.1509 11.8466 21.0199 11.9821 21.0199H13.096C13.2408 21.0199 13.3684 21.114 13.4102 21.2512L14.0728 23.4434L15.6364 21.1621C15.6976 21.0731 15.7993 21.0199 15.9073 21.0199Z" fill="#253B80"/>
<path fill-rule="evenodd" clip-rule="evenodd" d="M28.198 25.1186L29.1647 19.0256C29.1795 18.931 29.2623 18.8614 29.3584 18.8611H30.4468C30.567 18.8611 30.6592 18.9678 30.6403 19.0859L29.6869 25.0692C29.662 25.2271 29.525 25.3432 29.3635 25.3432H28.3915C28.2713 25.3432 28.179 25.2367 28.198 25.1186ZM20.7941 18.8614H18.438C18.2771 18.8614 18.1401 18.9775 18.1149 19.135L17.1621 25.1186C17.1432 25.2367 17.2355 25.3432 17.3558 25.3432H18.5647C18.6771 25.3432 18.7732 25.262 18.7907 25.1515L19.0611 23.4554C19.0859 23.2973 19.2233 23.1814 19.3842 23.1814H20.1295C21.6816 23.1814 22.5769 22.4376 22.8111 20.9636C22.9168 20.3188 22.8152 19.8121 22.5105 19.4571C22.1759 19.0676 21.5824 18.8614 20.7941 18.8614ZM21.0658 21.0468C20.9374 21.8841 20.2915 21.8841 19.6666 21.8841H19.3115L19.5613 20.3204C19.5761 20.2259 19.658 20.1563 19.7548 20.1563H19.9177C20.3428 20.1563 20.7445 20.1563 20.9517 20.3965C21.0754 20.5398 21.113 20.7527 21.0658 21.0468ZM27.835 21.02H26.7077C26.6108 21.02 26.5286 21.0896 26.5141 21.1842L26.4642 21.4967L26.385 21.3835C26.1408 21.0323 25.5966 20.915 25.053 20.915C23.8064 20.915 22.7421 21.8502 22.5347 23.1621C22.4273 23.8165 22.5798 24.4422 22.9545 24.8786C23.299 25.2798 23.7903 25.447 24.3754 25.447C25.3798 25.447 25.9367 24.8073 25.9367 24.8073L25.8865 25.1178C25.8676 25.2366 25.9598 25.343 26.0808 25.343H27.0965C27.2574 25.343 27.3944 25.2269 27.4196 25.069L28.0296 21.2445C28.0483 21.1269 27.956 21.02 27.835 21.02ZM26.2627 23.1948C26.1545 23.8332 25.6423 24.2617 24.9899 24.2617C24.663 24.2617 24.4006 24.1577 24.2324 23.9605C24.0657 23.7647 24.0031 23.4858 24.0555 23.1754C24.1577 22.5424 24.6772 22.1 25.3195 22.1C25.6399 22.1 25.9002 22.2053 26.0719 22.4042C26.2444 22.6052 26.3126 22.8857 26.2627 23.1948Z" fill="#179BD7"/>
<path d="M12.7093 16.7208L12.9989 14.8987L12.3538 14.8839H9.27344L11.4142 1.43814C11.4207 1.39754 11.4424 1.3597 11.4739 1.33282C11.5055 1.30595 11.546 1.29114 11.5881 1.29114H16.7821C18.5065 1.29114 19.6964 1.64658 20.3177 2.34812C20.6089 2.67724 20.7945 3.02115 20.8842 3.39962C20.9783 3.79676 20.98 4.27122 20.888 4.8499L20.8813 4.89214V5.26293L21.1727 5.4264C21.418 5.55529 21.6128 5.70284 21.7623 5.87179C22.0116 6.15317 22.1728 6.5108 22.2409 6.9348C22.3111 7.37087 22.2879 7.88976 22.1728 8.47723C22.0399 9.153 21.825 9.74156 21.5349 10.2232C21.2679 10.6669 20.9279 11.0349 20.5243 11.3202C20.1389 11.5911 19.6809 11.7969 19.1632 11.9286C18.6614 12.0579 18.0895 12.1232 17.4621 12.1232H17.0578C16.7688 12.1232 16.488 12.2264 16.2677 12.4113C16.0468 12.5999 15.9004 12.8576 15.8557 13.1396L15.8252 13.3037L15.3135 16.5151L15.2903 16.633C15.2842 16.6705 15.2737 16.6891 15.2582 16.7017C15.2444 16.7131 15.2244 16.7208 15.205 16.7208H12.7093Z" fill="#253B80"/>
<path d="M21.4484 4.93512C21.4329 5.0333 21.4152 5.13367 21.3953 5.23679C20.7102 8.72042 18.3669 9.92386 15.3739 9.92386H13.85C13.484 9.92386 13.1756 10.1871 13.1185 10.5448L12.3383 15.4464L12.1174 16.8357C12.0802 17.0705 12.263 17.2822 12.5021 17.2822H15.2051C15.5251 17.2822 15.7969 17.0518 15.8473 16.7392L15.8739 16.6031L16.3829 13.4041L16.4155 13.2287C16.4653 12.915 16.7377 12.6846 17.0578 12.6846H17.462C20.0806 12.6846 22.1306 11.6314 22.7298 8.58384C22.9801 7.31073 22.8505 6.24772 22.1882 5.50008C21.9878 5.27464 21.7391 5.0876 21.4484 4.93512Z" fill="#179BD7"/>
<path d="M20.7317 4.65229C20.6271 4.62212 20.519 4.59469 20.4082 4.57001C20.297 4.54588 20.1828 4.52449 20.0655 4.50584C19.6546 4.44002 19.2045 4.40875 18.7221 4.40875H14.6511C14.5508 4.40875 14.4556 4.43124 14.3704 4.47183C14.1826 4.56123 14.0431 4.73732 14.0093 4.95288L13.1432 10.3865L13.1183 10.545C13.1754 10.1873 13.4838 9.92406 13.8498 9.92406H15.3736C18.3667 9.92406 20.7101 8.72008 21.3951 5.23701C21.4155 5.13389 21.4327 5.03351 21.4482 4.93533C21.2749 4.84427 21.0871 4.76639 20.885 4.70001C20.8353 4.68355 20.7838 4.66765 20.7317 4.65229Z" fill="#222D65"/>
<path d="M14.0094 4.95275C14.0432 4.73718 14.1828 4.56111 14.3704 4.47225C14.4563 4.43165 14.551 4.40917 14.6511 4.40917H18.7223C19.2047 4.40917 19.6548 4.44043 20.0656 4.50626C20.183 4.5249 20.2972 4.5463 20.4084 4.57042C20.5192 4.59512 20.6271 4.62255 20.7319 4.6527C20.7838 4.66807 20.8353 4.68397 20.8857 4.69988C21.0878 4.76625 21.2756 4.84469 21.4488 4.93519C21.6527 3.64783 21.4472 2.7713 20.7446 1.9776C19.9699 1.10382 18.5717 0.729736 16.7826 0.729736H11.5884C11.2229 0.729736 10.9113 0.993011 10.8547 1.3512L8.69134 14.9352C8.64862 15.2039 8.85791 15.4464 9.13144 15.4464H12.3382L13.1434 10.3863L14.0094 4.95275Z" fill="#253B80"/>
</svg>
