<svg width="110" height="112" viewBox="0 0 110 112" fill="none" xmlns="http://www.w3.org/2000/svg">
<path d="M3.15813 43.6151C5.3172 43.1502 7.44429 44.5234 7.90955 46.6822C8.37447 48.8414 7.00127 50.9692 4.8422 51.4341C2.68313 51.8994 0.555698 50.5258 0.0904313 48.3667C-0.374487 46.2076 0.999057 44.0801 3.15813 43.6151Z" fill="#FF6D83"/>
<path d="M104.541 33.0905C106.7 32.6255 108.828 33.9985 109.293 36.1577C109.758 38.317 108.385 40.4442 106.226 40.9095C104.066 41.3745 101.939 40.0015 101.474 37.8423C101.009 35.683 102.382 33.5554 104.541 33.0905Z" fill="#6DB8FF"/>
<path d="M57.8931 0.0904511C60.0522 -0.374481 62.1794 0.998755 62.6443 3.15754C63.1096 5.31668 61.736 7.44451 59.5769 7.90945C57.4177 8.37473 55.2906 7.00114 54.8253 4.84201C54.3604 2.68287 55.734 0.555383 57.8931 0.0904511Z" fill="#FFB636"/>
<path d="M34.0572 103.322C36.2163 102.857 38.3432 104.23 38.8085 106.39C39.2734 108.549 37.9005 110.676 35.7413 111.141C33.5822 111.606 31.4546 110.233 30.9894 108.074C30.5244 105.915 31.898 103.787 34.0572 103.322Z" fill="#6DB8FF"/>
<path d="M100.714 80.4514C102.873 79.9864 105 81.3597 105.465 83.519C105.93 85.6782 104.557 87.8054 102.398 88.2704C100.239 88.7357 98.1114 87.3624 97.6461 85.2031C97.1812 83.0439 98.5548 80.9167 100.714 80.4514Z" fill="#BDA3FF"/>
<path d="M66.4796 18.6138C88.453 24.5016 101.493 47.0873 95.6052 69.0603C89.7169 91.0338 67.1307 104.073 45.1578 98.1855C23.1848 92.2972 10.1448 69.7119 16.0331 47.739C21.9204 25.7655 44.5061 12.726 66.4796 18.6138Z" fill="#43D296"/>
<path d="M48.9927 74.0506C48.5228 74.4749 47.7997 74.4442 47.3668 73.9821L32.4154 58.015C31.9038 57.3762 31.656 56.5713 31.7218 55.7619C31.7874 54.9516 32.1621 54.1972 32.7705 53.6476C33.3791 53.0983 34.1767 52.7951 35.0035 52.7982C35.8307 52.8013 36.6265 53.1109 37.2323 53.6655L48.0077 65.1728C48.2959 65.4808 48.7782 65.5007 49.0914 65.2177L71.69 44.812C72.3397 44.3102 73.1593 44.0679 73.9836 44.1343C74.8082 44.2003 75.5771 44.569 76.1373 45.1679C76.6977 45.7657 77.0078 46.5498 77.0057 47.3621C77.0037 48.1744 76.6896 48.9553 76.126 49.5497L48.9927 74.0506Z" fill="white"/>
<path d="M23.79 16.9156C23.0362 14.1174 21.2451 10.4066 16.9961 8.04633" stroke="#FF6E83" stroke-width="3" stroke-linecap="round"/>
<path d="M19.0047 98.732C18.1841 98.8681 16.9966 98.7991 15.324 98.4321C5.83652 96.3495 14.2827 104.564 14.2827 104.564C14.2827 104.564 16.4454 108.81 12.307 107.77" stroke="#BEA4FF" stroke-width="3" stroke-linecap="round"/>
<path d="M94.9145 12.5177C97.5151 11.5692 100.567 12.5096 103.525 18.2574C109.1 29.0887 95.9426 26.8808 96.7076 20.1291" stroke="#FFB636" stroke-width="3" stroke-linecap="round"/>
<path d="M84.6265 99.2333C85.367 101.293 87.3788 103.707 92.3803 105.374C92.9579 105.567 93.4947 105.759 93.9927 105.951" stroke="#6EB9FF" stroke-width="5" stroke-linecap="round"/>
</svg>
