<svg width="40" height="40" viewBox="0 0 40 40" fill="none" xmlns="http://www.w3.org/2000/svg">
<path d="M39.3971 24.8381C36.726 35.5525 25.8741 42.0731 15.1584 39.4012C4.44722 36.7301 -2.07335 25.8775 0.598971 15.1639C3.26894 4.44838 14.1209 -2.07268 24.8332 0.598468C35.5481 3.26961 42.0683 14.1234 39.3968 24.8383L39.397 24.8381H39.3971Z" fill="#50AF95"/>
<path fill-rule="evenodd" clip-rule="evenodd" d="M22.5309 22.2674C22.3894 22.278 21.6588 22.3216 20.0289 22.3216C18.7326 22.3216 17.8122 22.2827 17.4893 22.2674C12.4796 22.047 8.74024 21.1749 8.74024 20.1308C8.74024 19.0867 12.4796 18.2158 17.4893 17.9918V21.3988C17.8169 21.4224 18.755 21.4778 20.0513 21.4778C21.6069 21.4778 22.3859 21.413 22.5262 21.4V17.9942C27.5253 18.2169 31.2564 19.089 31.2564 20.1308C31.2564 21.1726 27.5265 22.0446 22.5262 22.2662L22.5309 22.2674ZM22.5309 17.6418V14.5931H29.5075V9.94397H10.5127V14.5931H17.4881V17.6406C11.8184 17.9011 7.55469 19.0242 7.55469 20.37C7.55469 21.7158 11.8184 22.8378 17.4881 23.0994V32.869H22.5297V23.0959C28.1864 22.8354 32.4431 21.7135 32.4431 20.3688C32.4431 19.0242 28.1899 17.9023 22.5297 17.6406L22.5309 17.6418Z" fill="white"/>
</svg>
