<svg width="40" height="40" viewBox="0 0 40 40" fill="none" xmlns="http://www.w3.org/2000/svg">
<circle cx="20" cy="20" r="20" fill="#EDF0F4"/>
<path d="M23.7513 23.3334H22.6228C22.4138 23.3334 22.2361 23.1662 22.2361 22.9467V19.9791L20.2612 21.2122C20.094 21.3166 19.8851 21.3166 19.7179 21.2122L17.7534 19.9791V22.9467C17.7534 23.1557 17.5862 23.3334 17.3668 23.3334H16.2487C16.0397 23.3334 15.8621 23.1662 15.8621 22.9467V17.2205C15.8621 16.9384 16.0919 16.7085 16.3741 16.7085C16.4786 16.7085 16.5726 16.7398 16.6562 16.8025L19.7701 18.9446C19.8955 19.0387 20.0731 19.0387 20.1985 18.9446L23.3124 16.8025C23.5423 16.6458 23.8662 16.7085 24.023 16.9384C24.0857 17.022 24.1066 17.1265 24.117 17.2205V22.9467C24.1275 23.1557 23.9603 23.3334 23.7513 23.3334Z" fill="#FF4A4A"/>
<path d="M14.1798 23.3229H7.17876C6.89663 23.3229 6.66675 23.093 6.66675 22.8109V17.0533C6.6772 16.8339 6.84439 16.6667 7.06382 16.6667H8.19235C8.40134 16.6667 8.57897 16.8339 8.57897 17.0533V21.4316H12.8214V17.0533C12.8214 16.8443 12.9886 16.6667 13.208 16.6667H14.3052C14.5142 16.6667 14.6918 16.8339 14.6918 17.0533V22.8109C14.6918 23.093 14.4619 23.3229 14.1798 23.3229Z" fill="#FF4A4A"/>
<path d="M25.8204 16.6667H32.8214C33.1035 16.6667 33.3334 16.8966 33.3334 17.1787V22.9363C33.3334 23.1453 33.1662 23.3229 32.9573 23.3229H31.8287C31.6197 23.3229 31.4421 23.1557 31.4421 22.9363V18.8088C31.4421 18.673 31.3272 18.558 31.1913 18.558H27.4609C27.3251 18.558 27.2101 18.673 27.2101 18.8088V22.9363C27.2101 23.1453 27.0429 23.3229 26.8235 23.3229H25.695C25.486 23.3229 25.3083 23.1557 25.3083 22.9363V17.1787C25.3083 16.8966 25.5382 16.6667 25.8204 16.6667Z" fill="#FF4A4A"/>
<path d="M28.7565 19.7701H29.8746C30.0836 19.7701 30.2612 19.9373 30.2612 20.1568V21.2957C30.2612 21.5047 30.094 21.6824 29.8746 21.6824H28.7565C28.5475 21.6824 28.3699 21.5152 28.3699 21.2957V20.1463C28.3699 19.9373 28.5475 19.7701 28.7565 19.7701Z" fill="#FF4A4A"/>
</svg>
